<?xml version="1.0" encoding="UTF-8" standalone="no"?>
<!DOCTYPE svg PUBLIC "-//W3C//DTD SVG 1.1//EN"
 "http://www.w3.org/Graphics/SVG/1.1/DTD/svg11.dtd">
<!-- Generated by graphviz version 9.0.0 (20230911.1827)
 -->
<!-- Pages: 1 -->
<svg width="145pt" height="208pt"
 viewBox="0.00 0.00 145.22 208.43" xmlns="http://www.w3.org/2000/svg" xmlns:xlink="http://www.w3.org/1999/xlink">
<g id="graph0" class="graph" transform="scale(1 1) rotate(0) translate(4 204.43)">
<polygon fill="white" stroke="none" points="-4,4 -4,-204.43 141.22,-204.43 141.22,4 -4,4"/>
<!-- n0 -->
<g id="node1" class="node">
<title>n0</title>
<polygon fill="none" stroke="black" points="70.11,-200.43 34.11,-200.43 34.11,-164.43 70.11,-164.43 70.11,-200.43"/>
<text text-anchor="middle" x="52.11" y="-178.23" font-family="Times,serif" font-size="14.00">+</text>
</g>
<!-- n1 -->
<g id="node2" class="node">
<title>n1</title>
<ellipse fill="none" stroke="black" cx="23.11" cy="-105.32" rx="23.11" ry="23.11"/>
<text text-anchor="middle" x="23.11" y="-101.12" font-family="Times,serif" font-size="14.00">1.0</text>
</g>
<!-- n0&#45;&gt;n1 -->
<g id="edge1" class="edge">
<title>n0&#45;&gt;n1</title>
<path fill="none" stroke="black" d="M45.38,-164.01C42.38,-156.25 38.76,-146.85 35.31,-137.92"/>
<polygon fill="black" stroke="black" points="38.66,-136.87 31.79,-128.81 32.13,-139.4 38.66,-136.87"/>
</g>
<!-- n2 -->
<g id="node3" class="node">
<title>n2</title>
<polygon fill="none" stroke="black" points="100.11,-123.32 64.11,-123.32 64.11,-87.32 100.11,-87.32 100.11,-123.32"/>
<text text-anchor="middle" x="82.11" y="-101.12" font-family="Times,serif" font-size="14.00">*</text>
</g>
<!-- n0&#45;&gt;n2 -->
<g id="edge2" class="edge">
<title>n0&#45;&gt;n2</title>
<path fill="none" stroke="black" d="M59.07,-164.01C62.59,-155.19 66.95,-144.28 70.93,-134.32"/>
<polygon fill="black" stroke="black" points="74.17,-135.64 74.63,-125.05 67.67,-133.04 74.17,-135.64"/>
</g>
<!-- n3 -->
<g id="node4" class="node">
<title>n3</title>
<ellipse fill="none" stroke="black" cx="50.11" cy="-23.11" rx="23.11" ry="23.11"/>
<text text-anchor="middle" x="50.11" y="-18.91" font-family="Times,serif" font-size="14.00">2.0</text>
</g>
<!-- n2&#45;&gt;n3 -->
<g id="edge3" class="edge">
<title>n2&#45;&gt;n3</title>
<path fill="none" stroke="black" d="M75.16,-86.92C71.51,-77.75 66.91,-66.23 62.66,-55.56"/>
<polygon fill="black" stroke="black" points="65.92,-54.29 58.96,-46.3 59.41,-56.88 65.92,-54.29"/>
</g>
<!-- n4 -->
<g id="node5" class="node">
<title>n4</title>
<ellipse fill="none" stroke="black" cx="114.11" cy="-23.11" rx="23.11" ry="23.11"/>
<text text-anchor="middle" x="114.11" y="-18.91" font-family="Times,serif" font-size="14.00">3.0</text>
</g>
<!-- n2&#45;&gt;n4 -->
<g id="edge4" class="edge">
<title>n2&#45;&gt;n4</title>
<path fill="none" stroke="black" d="M89.05,-86.92C92.71,-77.75 97.3,-66.23 101.56,-55.56"/>
<polygon fill="black" stroke="black" points="104.8,-56.88 105.26,-46.3 98.3,-54.29 104.8,-56.88"/>
</g>
</g>
</svg>
